<?xml version="1.0" encoding="UTF-8"?>
<svg width="100px" height="100px" viewBox="0 0 100 100" version="1.1" xmlns="http://www.w3.org/2000/svg" xmlns:xlink="http://www.w3.org/1999/xlink">
    <!-- Generator: Sketch 47.1 (45422) - http://www.bohemiancoding.com/sketch -->
    <title>go!</title>
    <desc>Created with Sketch.</desc>
    <defs></defs>
    <g id="export" stroke="none" stroke-width="1" fill="none" fill-rule="evenodd">
        <g id="icons" transform="translate(-179.000000, -111.000000)">
            <g id="Group-2" transform="translate(179.000000, 111.000000)">
                <circle id="Oval-2" stroke="#497693" stroke-width="2" cx="50" cy="50" r="49"></circle>
                <g id="circle-add" transform="translate(19.000000, 19.000000)" fill-rule="nonzero" fill="#497693">
                    <path d="M31,0 C48.1,0 62,13.9 62,31 C62,48.1 48.1,62 31,62 C13.9,62 0,48.1 0,31 C0,13.9 13.9,0 31,0 Z M26.6143198,42.3769871 C26.8920135,42.3769871 27.1691647,42.2712249 27.3812316,42.059158 L46.9065661,22.5338235 L45.3727426,21 L26.6143198,39.7578804 L16.5338235,29.6779265 L15,31.21175 L25.8474081,42.059158 C26.0594749,42.2712249 26.3366262,42.3769871 26.6143198,42.3769871 Z" id="Shape"></path>
                </g>
            </g>
        </g>
    </g>
</svg>