<?xml version="1.0" encoding="UTF-8"?>
<svg width="114px" height="111px" viewBox="0 0 114 111" version="1.1" xmlns="http://www.w3.org/2000/svg" xmlns:xlink="http://www.w3.org/1999/xlink">
    <!-- Generator: Sketch 47.1 (45422) - http://www.bohemiancoding.com/sketch -->
    <title>handshake_icn</title>
    <desc>Created with Sketch.</desc>
    <defs></defs>
    <g id="export" stroke="none" stroke-width="1" fill="none" fill-rule="evenodd">
        <g id="icons" transform="translate(-354.000000, -81.000000)" fill-rule="nonzero" fill="#497693">
            <g id="handshake_icn" transform="translate(354.000000, 81.000000)">
                <path d="M56.6931032,89.6907493 C53.6153834,86.6377518 48.626394,86.6377518 45.5486742,89.6907493 L44.6199718,90.6119918 C47.6976916,87.5589943 47.6976916,82.6100798 44.6199718,79.5570823 C41.542252,76.5040848 36.5532627,76.5040848 33.4755429,79.5570823 L32.5468404,80.4783247 C35.6245602,77.4253272 35.6245602,72.4764127 32.5468404,69.4234152 C29.4691206,66.3704177 24.4801313,66.3704177 21.4024115,69.4234152 L20.4737091,70.3446577 C23.5514289,67.2916601 23.5514289,62.3427457 20.4737091,59.2897481 C17.3959893,56.2367506 12.4069999,56.2367506 9.3292801,59.2897481 L2.30828985,66.2543411 C-0.76942995,69.3073387 -0.76942995,74.2562532 2.30828985,77.3092507 L2.30828985,77.3092507 C5.38600965,80.3622482 10.374999,80.3622482 13.4527188,77.3092507 L14.3814212,76.3880082 C11.3037014,79.4410057 11.3037014,84.3899202 14.3814212,87.4429177 L14.3814212,87.4429177 C17.459141,90.4959152 22.4481304,90.4959152 25.5258502,87.4429177 L26.4545526,86.5216753 C23.3768328,89.5746728 23.3768328,94.5235873 26.4545526,97.5765848 L26.4545526,97.5765848 C29.5322724,100.629582 34.5212618,100.629582 37.5989816,97.5765848 L38.527684,96.6553423 C35.4499642,99.7083399 35.4499642,104.657254 38.527684,107.710252 L38.527684,107.710252 C41.6054038,110.763249 46.5943932,110.763249 49.672113,107.710252 L56.6931032,100.745659 C59.7689656,97.6945038 59.7689656,92.7437468 56.6931032,89.6907493 Z" id="Shape"></path>
                <path d="M102.848307,11.4722727 C95.5916548,4.07140179 85.879385,0 75.4912235,0 C75.4526536,0 75.4159203,0 75.3791871,0 C65.0093922,0.0295296594 55.2107992,4.09724025 47.7723172,11.4630447 L21.537434,37.8256481 C21.1462249,38.2187617 20.9515388,38.7687516 21.0103119,39.3242783 C21.0672485,39.8779595 21.3702977,40.3762725 21.8349733,40.6789515 C21.9800696,40.7749229 25.4642178,43.0136402 30.7372751,43.4159818 C35.3344406,43.7684921 42.2476372,42.7423364 49.3922533,36.0686334 C54.3659346,38.571272 73.0613193,46.8321942 85.2861431,36.666609 C87.8354303,34.3762148 89.8263721,32.0009228 89.8263721,32.0009228 C89.8263721,32.0009228 88.7647814,37.4122329 84.927994,42.511636 L105.269028,64 C117.642621,48.50062 116.88959,25.7904663 102.848307,11.4722727 Z" id="Shape"></path>
                <path d="M88.8066673,52.127577 L81.0735772,43.9345552 L81.0735772,43.9345552 L80.7283336,43.5681179 C77.6046132,44.7655168 74.1540133,45.3836485 70.3838794,45.3836485 C62.1935251,45.3836485 54.374124,42.5021182 49.9392124,40.5033688 C43.1794155,46.0350928 36.6877334,47.2547001 32.2748586,47.2547001 C31.6229358,47.2547001 31.0003954,47.2287903 30.4072375,47.182523 C24.2828358,46.7142974 20.2188775,44.1362809 19.7763045,43.8438712 C18.3861479,42.9351805 17.482638,41.4490734 17.3081798,39.7723447 C17.1300488,38.1104216 17.7066791,36.4651548 18.8874858,35.2714572 L45.1241656,8.83614584 C47.5922903,6.38397646 50.3211841,4.30934862 53.2080085,2.54748805 C38.8748885,-2.86209016 22.1434271,0.48766576 11.4849481,11.2272423 C-1.01911526,23.828617 -3.51662241,43.0739826 4.9951023,58.179346 L6.64051877,56.5211243 C8.8056371,54.3391562 11.6851159,53.1362052 14.7463986,53.1362052 C17.8076812,53.1362052 20.68716,54.3373055 22.8522784,56.5211243 C24.6960263,58.3773703 25.8345957,60.7573626 26.1320929,63.3279764 C26.3157331,63.3187229 26.4975369,63.3150215 26.6830136,63.3150215 C29.7442962,63.3150215 32.6237751,64.5161219 34.7888934,66.6999406 C36.6326413,68.5561866 37.7712107,70.9361789 38.0687079,73.5067927 C38.2523481,73.4975393 38.434152,73.4938379 38.6196286,73.4938379 C41.6809112,73.4938379 44.5603901,74.6949382 46.7255084,76.878757 C48.5692563,78.7350029 49.7078257,81.1149953 50.0053229,83.6856091 C50.1889632,83.6763556 50.370767,83.6726542 50.5562436,83.6726542 C53.6175263,83.6726542 56.4970051,84.8737545 58.6621234,87.0575733 C60.8290781,89.2395414 62.0209032,92.1414294 62.0209032,95.2265361 C62.0209032,98.3116428 60.8290781,101.213531 58.6621234,103.395499 L53.9701155,108.124022 L54.063772,108.218407 C55.8432459,110.011729 58.1828224,111 60.6527835,111 C63.1209082,111 65.4604848,110.01358 67.2399586,108.220258 C69.0745245,106.371415 69.9945621,104.000676 70.0055805,101.626236 C70.9825465,101.976017 72.007259,102.192548 73.0650267,102.192548 C75.5349878,102.192548 77.872728,101.204277 79.6522018,99.4128056 C81.4316757,97.6194833 82.4123145,95.2616993 82.4123145,92.7743667 C82.4123145,92.7521584 82.4049689,92.72995 82.4049689,92.7077417 C83.3084788,93.0242104 84.2432076,93.2425922 85.2073188,93.2722033 C85.2991389,93.274054 85.390959,93.2759047 85.4809427,93.2759047 C87.8847934,93.2759047 90.138059,92.3339015 91.8532588,90.6053535 C93.5776405,88.8675519 94.4940053,86.6171082 94.4903325,84.2500707 C95.4434253,84.5813449 96.4387553,84.7904733 97.468977,84.7904733 C99.9389381,84.7904733 102.276678,83.8022028 104.056152,82.0107311 C107.796904,78.2408677 107.998908,72.5555361 104.51158,68.7690164 L88.8066673,52.127577 Z" id="Shape"></path>
            </g>
        </g>
    </g>
</svg>