<?xml version="1.0" encoding="UTF-8"?>
<svg width="101px" height="101px" viewBox="0 0 101 101" version="1.1" xmlns="http://www.w3.org/2000/svg" xmlns:xlink="http://www.w3.org/1999/xlink">
    <!-- Generator: Sketch 47.1 (45422) - http://www.bohemiancoding.com/sketch -->
    <title>RECORDING</title>
    <desc>Created with Sketch.</desc>
    <defs></defs>
    <g id="export" stroke="none" stroke-width="1" fill="none" fill-rule="evenodd">
        <g id="icons" transform="translate(-260.000000, -490.000000)">
            <g id="RECORDING" transform="translate(260.000000, 490.000000)">
                <g id="Group-2">
                    <path d="M50.5,0 C22.6435484,0 0,22.6435484 0,50.5 C0,78.3564516 22.6435484,101 50.5,101 C78.3564516,101 101,78.3564516 101,50.5 C101,22.6435484 78.3564516,0 50.5,0 Z" id="Path" fill="#FFFFFF"></path>
                    <path d="M51,20 C33.9,20 20,33.9 20,51 C20,68.1 33.9,82 51,82 C68.1,82 82,68.1 82,51 C82,33.9 68.1,20 51,20 Z" id="Path" fill="#497693"></path>
                    <g id="ic_keyboard_voice_48px" transform="translate(37.000000, 32.000000)" fill-rule="nonzero" fill="#FFFFFF">
                        <path d="M14,24 C17.31,24 19.98,21.31 19.98,18 L20,6 C20,2.68 17.32,0 14,0 C10.69,0 8,2.68 8,6 L8,18 C8,21.31 10.69,24 14,24 Z M24.6,18 C24.6,24 19.53,28.2 14,28.2 C8.48,28.2 3.4,24 3.4,18 L0,18 C0,24.83 5.44,30.47 12,31.44 L12,38 L16,38 L16,31.44 C22.56,30.47 28,24.83 28,18 L24.6,18 Z" id="Shape"></path>
                    </g>
                </g>
            </g>
        </g>
    </g>
</svg>