<?xml version="1.0" encoding="UTF-8"?>
<svg width="53px" height="53px" viewBox="0 0 53 53" version="1.1" xmlns="http://www.w3.org/2000/svg" xmlns:xlink="http://www.w3.org/1999/xlink">
    <!-- Generator: Sketch 47.1 (45422) - http://www.bohemiancoding.com/sketch -->
    <title>share_profile_page</title>
    <desc>Created with Sketch.</desc>
    <defs>
        <path d="M22.5,0 C10.0887097,0 0,10.0887097 0,22.5 C0,34.9112903 10.0887097,45 22.5,45 C34.9112903,45 45,34.9112903 45,22.5 C45,10.0887097 34.9112903,0 22.5,0 Z" id="path-1"></path>
        <filter x="-15.6%" y="-11.1%" width="131.1%" height="131.1%" filterUnits="objectBoundingBox" id="filter-2">
            <feOffset dx="0" dy="2" in="SourceAlpha" result="shadowOffsetOuter1"></feOffset>
            <feGaussianBlur stdDeviation="2" in="shadowOffsetOuter1" result="shadowBlurOuter1"></feGaussianBlur>
            <feColorMatrix values="0 0 0 0 0   0 0 0 0 0   0 0 0 0 0  0 0 0 0.21 0" type="matrix" in="shadowBlurOuter1"></feColorMatrix>
        </filter>
    </defs>
    <g id="export" stroke="none" stroke-width="1" fill="none" fill-rule="evenodd">
        <g id="Artboard-4" transform="translate(-250.000000, -45.000000)">
            <g id="Group-2" transform="translate(254.000000, 47.000000)">
                <g id="Path">
                    <use fill="black" fill-opacity="1" filter="url(#filter-2)" xlink:href="#path-1"></use>
                    <use fill="#FFFFFF" fill-rule="evenodd" xlink:href="#path-1"></use>
                </g>
                <g id="upload" transform="translate(12.000000, 9.000000)" fill-rule="nonzero" fill="#497693">
                    <polygon id="Shape" points="16 6 11 0 6 6 10 6 10 17 12 17 12 6"></polygon>
                    <path d="M21,24 L1,24 C0.692,24 0.401,23.858 0.212,23.615 C0.023,23.372 -0.045,23.056 0.03,22.757 L3.03,10.757 C3.141,10.312 3.541,10 4,10 L8,10 L8,12 L4.781,12 L2.281,22 L19.719,22 L17.219,12 L14,12 L14,10 L18,10 C18.459,10 18.859,10.312 18.97,10.757 L21.97,22.757 C22.045,23.056 21.977,23.372 21.788,23.615 C21.599,23.858 21.308,24 21,24 Z" id="Shape"></path>
                </g>
            </g>
        </g>
    </g>
</svg>