<?xml version="1.0" encoding="UTF-8"?>
<svg width="53px" height="53px" viewBox="0 0 53 53" version="1.1" xmlns="http://www.w3.org/2000/svg" xmlns:xlink="http://www.w3.org/1999/xlink">
    <!-- Generator: Sketch 47.1 (45422) - http://www.bohemiancoding.com/sketch -->
    <title>cal</title>
    <desc>Created with Sketch.</desc>
    <defs>
        <path d="M22.5,0 C10.0887097,0 0,10.0887097 0,22.5 C0,34.9112903 10.0887097,45 22.5,45 C34.9112903,45 45,34.9112903 45,22.5 C45,10.0887097 34.9112903,0 22.5,0 Z" id="path-1"></path>
        <filter x="-15.6%" y="-11.1%" width="131.1%" height="131.1%" filterUnits="objectBoundingBox" id="filter-2">
            <feOffset dx="0" dy="2" in="SourceAlpha" result="shadowOffsetOuter1"></feOffset>
            <feGaussianBlur stdDeviation="2" in="shadowOffsetOuter1" result="shadowBlurOuter1"></feGaussianBlur>
            <feColorMatrix values="0 0 0 0 0   0 0 0 0 0   0 0 0 0 0  0 0 0 0.21 0" type="matrix" in="shadowBlurOuter1"></feColorMatrix>
        </filter>
    </defs>
    <g id="export" stroke="none" stroke-width="1" fill="none" fill-rule="evenodd">
        <g id="Artboard-4" transform="translate(-138.000000, -158.000000)">
            <g id="Group-2" transform="translate(142.000000, 160.000000)">
                <g id="Path">
                    <use fill="black" fill-opacity="1" filter="url(#filter-2)" xlink:href="#path-1"></use>
                    <use fill="#FFFFFF" fill-rule="evenodd" xlink:href="#path-1"></use>
                </g>
                <g id="calendar-grid-58" transform="translate(11.000000, 11.000000)" fill-rule="nonzero" fill="#497693">
                    <path d="M23,2 L19,2 L19,0 L17,0 L17,2 L13,2 L13,0 L11,0 L11,2 L7,2 L7,0 L5,0 L5,2 L1,2 C0.448,2 0,2.448 0,3 L0,23 C0,23.552 0.448,24 1,24 L23,24 C23.552,24 24,23.552 24,23 L24,3 C24,2.448 23.552,2 23,2 Z M22,22 L2,22 L2,8 L22,8 L22,22 Z" id="Shape"></path>
                    <rect id="Rectangle-path" x="4" y="11" width="4" height="3"></rect>
                    <rect id="Rectangle-path" x="10" y="11" width="4" height="3"></rect>
                    <rect id="Rectangle-path" x="4" y="16" width="4" height="3"></rect>
                    <rect id="Rectangle-path" x="10" y="16" width="4" height="3"></rect>
                    <rect id="Rectangle-path" x="16" y="11" width="4" height="3"></rect>
                </g>
            </g>
        </g>
    </g>
</svg>