<svg width="100" height="100" viewBox="0 0 100 100" version="1.1" xmlns="http://www.w3.org/2000/svg" xmlns:xlink="http://www.w3.org/1999/xlink">
<title>Group</title>
<desc>Created using Figma</desc>
<g id="Canvas" transform="translate(-593 2330)">
<g id="Group">
<g id="see_conn">
<g id="export">
<g id="Artboard">
<g id="Group">
<g id="Oval 2">
<use xlink:href="#path0_stroke" transform="translate(594 -2329)" fill="#497693"/>
</g>
</g>
</g>
</g>
</g>
<g id="iconmonstr-calendar-9">
<g id="Vector">
<use xlink:href="#path1_fill" transform="translate(615.233 -2307.44)" fill="#497693"/>
</g>
</g>
</g>
</g>
<defs>
<path id="path0_stroke" d="M 97 49C 97 75.5097 75.5097 97 49 97L 49 99C 76.6142 99 99 76.6142 99 49L 97 49ZM 49 97C 22.4903 97 1 75.5097 1 49L -1 49C -1 76.6142 21.3858 99 49 99L 49 97ZM 1 49C 1 22.4903 22.4903 1 49 1L 49 -1C 21.3858 -1 -1 21.3858 -1 49L 1 49ZM 49 1C 75.5097 1 97 22.4903 97 49L 99 49C 99 21.3858 76.6142 -1 49 -1L 49 1Z"/>
<path id="path1_fill" d="M 39.1047 6.90083L 39.1047 2.30028C 39.1047 1.03052 40.1329 0 41.405 0C 42.6771 0 43.7053 1.03052 43.7053 2.30028L 43.7053 6.90083C 43.7053 8.17059 42.6771 9.20111 41.405 9.20111C 40.1329 9.20111 39.1047 8.17059 39.1047 6.90083ZM 11.5014 9.20111C 12.7734 9.20111 13.8017 8.17059 13.8017 6.90083L 13.8017 2.30028C 13.8017 1.03052 12.7734 0 11.5014 0C 10.2293 0 9.20111 1.03052 9.20111 2.30028L 9.20111 6.90083C 9.20111 8.17059 10.2293 9.20111 11.5014 9.20111ZM 41.405 39.1047L 41.405 32.2039L 39.1047 32.2039L 39.1047 41.405L 46.0056 41.405L 46.0056 39.1047L 41.405 39.1047ZM 29.9036 40.2549C 29.9036 45.9618 34.5479 50.6061 40.2549 50.6061C 45.9618 50.6061 50.6061 45.9618 50.6061 40.2549C 50.6061 34.5479 45.9618 29.9036 40.2549 29.9036C 34.5479 29.9036 29.9036 34.5479 29.9036 40.2549ZM 55.2067 40.2549C 55.2067 48.5129 48.5129 55.2067 40.2549 55.2067C 31.9969 55.2067 25.3031 48.5129 25.3031 40.2549C 25.3031 31.9969 31.9969 25.3031 40.2549 25.3031C 48.5129 25.3031 55.2067 31.9969 55.2067 40.2549ZM 22.4576 48.3058L 4.60056 48.3058L 4.60056 18.4022L 48.3058 18.4022L 48.3058 22.4576C 49.9781 23.2167 51.5239 24.1989 52.9064 25.3744L 52.9064 4.60056L 46.0056 4.60056L 46.0056 6.90083C 46.0056 9.928 43.0658 12.2812 39.8914 11.2576C 37.9799 10.6411 36.8044 8.70195 36.8044 6.69381L 36.8044 4.60056L 16.1019 4.60056L 16.1019 6.90083C 16.1019 9.928 13.1622 12.2812 9.98781 11.2576C 8.07628 10.6411 6.90083 8.70195 6.90083 6.69381L 6.90083 4.60056L 0 4.60056L 0 52.9064L 25.3744 52.9064C 24.1989 51.5239 23.2167 49.9781 22.4576 48.3058L 22.4576 48.3058Z"/>
</defs>
</svg>
