<?xml version="1.0" encoding="UTF-8"?>
<svg width="24px" height="20px" viewBox="0 0 24 20" version="1.1" xmlns="http://www.w3.org/2000/svg" xmlns:xlink="http://www.w3.org/1999/xlink">
    <!-- Generator: Sketch 47.1 (45422) - http://www.bohemiancoding.com/sketch -->
    <title>email</title>
    <desc>Created with Sketch.</desc>
    <defs></defs>
    <g id="export" stroke="none" stroke-width="1" fill="none" fill-rule="evenodd">
        <g id="icons" transform="translate(-132.000000, -235.000000)" fill-rule="nonzero" fill="#497693">
            <g id="email-85" transform="translate(132.000000, 235.000000)">
                <path d="M23,0 L1,0 C0.448,0 0,0.447 0,1 L0,19 C0,19.553 0.448,20 1,20 L23,20 C23.552,20 24,19.553 24,19 L24,1 C24,0.447 23.552,0 23,0 Z M8.207,13.207 L5.707,15.707 C5.512,15.902 5.256,16 5,16 C4.744,16 4.488,15.902 4.293,15.707 C3.902,15.316 3.902,14.684 4.293,14.293 L6.793,11.793 L8.207,13.207 Z M19.707,15.707 C19.512,15.902 19.256,16 19,16 C18.744,16 18.488,15.902 18.293,15.707 L15.793,13.207 L17.207,11.793 L19.707,14.293 C20.098,14.684 20.098,15.316 19.707,15.707 Z M19.707,5.707 L12.707,12.707 C12.512,12.902 12.256,13 12,13 C11.744,13 11.488,12.902 11.293,12.707 L4.293,5.707 C3.902,5.316 3.902,4.684 4.293,4.293 C4.684,3.902 5.316,3.902 5.707,4.293 L12,10.586 L18.293,4.293 C18.684,3.902 19.316,3.902 19.707,4.293 C20.098,4.684 20.098,5.316 19.707,5.707 Z" id="Shape"></path>
            </g>
        </g>
    </g>
</svg>