<?xml version="1.0" encoding="UTF-8"?>
<svg width="53px" height="53px" viewBox="0 0 53 53" version="1.1" xmlns="http://www.w3.org/2000/svg" xmlns:xlink="http://www.w3.org/1999/xlink">
    <!-- Generator: Sketch 47.1 (45422) - http://www.bohemiancoding.com/sketch -->
    <title>hear_rec</title>
    <desc>Created with Sketch.</desc>
    <defs>
        <path d="M22.5,0 C10.0887097,0 0,10.0887097 0,22.5 C0,34.9112903 10.0887097,45 22.5,45 C34.9112903,45 45,34.9112903 45,22.5 C45,10.0887097 34.9112903,0 22.5,0 Z" id="path-1"></path>
        <filter x="-15.6%" y="-11.1%" width="131.1%" height="131.1%" filterUnits="objectBoundingBox" id="filter-2">
            <feOffset dx="0" dy="2" in="SourceAlpha" result="shadowOffsetOuter1"></feOffset>
            <feGaussianBlur stdDeviation="2" in="shadowOffsetOuter1" result="shadowBlurOuter1"></feGaussianBlur>
            <feColorMatrix values="0 0 0 0 0   0 0 0 0 0   0 0 0 0 0  0 0 0 0.21 0" type="matrix" in="shadowBlurOuter1"></feColorMatrix>
        </filter>
    </defs>
    <g id="export" stroke="none" stroke-width="1" fill="none" fill-rule="evenodd">
        <g id="Artboard-4" transform="translate(-25.000000, -45.000000)">
            <g id="Group-2" transform="translate(29.000000, 47.000000)">
                <g id="Path">
                    <use fill="black" fill-opacity="1" filter="url(#filter-2)" xlink:href="#path-1"></use>
                    <use fill="#FFFFFF" fill-rule="evenodd" xlink:href="#path-1"></use>
                </g>
                <g id="ic_keyboard_voice_48px" transform="translate(11.000000, 12.000000)" fill-rule="nonzero" fill="#497693">
                    <g id="volume-98">
                        <path d="M14.447,0.105 C14.109,-0.062 13.703,-0.027 13.4,0.2 L5.667,6 L1,6 C0.447,6 0,6.447 0,7 L0,15 C0,15.553 0.447,16 1,16 L5.667,16 L13.4,21.8 C13.576,21.933 13.788,22 14,22 C14.152,22 14.306,21.965 14.447,21.895 C14.786,21.725 15,21.379 15,21 L15,1 C15,0.621 14.786,0.275 14.447,0.105 Z" id="Shape"></path>
                        <rect id="Rectangle-path" x="18" y="10" width="6" height="2"></rect>
                        <rect id="Rectangle-path" transform="translate(19.392411, 5.000639) rotate(-29.992901) translate(-19.392411, -5.000639) " x="16.3923674" y="4.00062459" width="6.00008766" height="2.00002922"></rect>
                        <rect id="Rectangle-path" transform="translate(19.391700, 17.000828) rotate(-59.999272) translate(-19.391700, -17.000828) " x="18.391722" y="14.000894" width="1.999956" height="5.999868"></rect>
                    </g>
                </g>
            </g>
        </g>
    </g>
</svg>