<svg width="100" height="100" viewBox="0 0 100 100" version="1.1" xmlns="http://www.w3.org/2000/svg" xmlns:xlink="http://www.w3.org/1999/xlink">
<title>Group 2</title>
<desc>Created using Figma</desc>
<g id="Canvas" transform="translate(-463 2460)">
<g id="Group 2">
<g id="Group">
<g id="see_conn">
<g id="export">
<g id="Artboard">
<g id="Group">
<g id="Oval 2">
<use xlink:href="#path0_stroke" transform="translate(464 -2459)" fill="#497693"/>
</g>
</g>
</g>
</g>
</g>
</g>
<g id="iconmonstr-link-2">
<g id="Vector">
<use xlink:href="#path1_fill" transform="translate(485.921 -2437.08)" fill="#497693"/>
</g>
</g>
</g>
</g>
<defs>
<path id="path0_stroke" d="M 97 49C 97 75.5097 75.5097 97 49 97L 49 99C 76.6142 99 99 76.6142 99 49L 97 49ZM 49 97C 22.4903 97 1 75.5097 1 49L -1 49C -1 76.6142 21.3858 99 49 99L 49 97ZM 1 49C 1 22.4903 22.4903 1 49 1L 49 -1C 21.3858 -1 -1 21.3858 -1 49L 1 49ZM 49 1C 75.5097 1 97 22.4903 97 49L 99 49C 99 21.3858 76.6142 -1 49 -1L 49 1Z"/>
<path id="path1_fill" d="M 30.9669 42.0955L 22.8207 50.2398C 17.5945 55.4639 9.1391 55.4639 3.91514 50.2398C 1.38779 47.7169 0 44.359 0 40.7889C 0 37.2189 1.38779 33.861 3.91289 31.3358L 14.8933 20.3572C 20.2076 15.0428 28.69 15.2527 33.7966 20.3572C 34.8188 21.3795 35.6244 22.553 36.254 23.8031L 32.6593 27.3957C 32.2531 26.0124 31.531 24.7126 30.484 23.6677C 27.2165 20.4001 21.6157 20.2602 18.2105 23.6655L 18.2082 23.67L 7.22553 34.6486C 3.84068 38.0313 3.84068 43.5421 7.22553 46.9248C 10.6487 50.3481 16.157 50.2827 19.5058 46.9248L 24.9779 41.4547C 27.2187 42.0955 29.0195 42.2106 30.9669 42.0955L 30.9669 42.0955ZM 31.3302 3.91755L 23.2652 11.9873C 25.1765 11.8745 26.9998 11.9873 29.2519 12.626L 34.6518 7.23482C 38.0322 3.84533 43.5427 3.84985 46.9276 7.23256C 50.3508 10.6582 50.2808 16.1666 46.9276 19.5133L 36.0261 30.4151L 36.0193 30.4196C 32.7744 33.6624 27.2503 33.922 23.7459 30.4151C 22.6785 29.3455 21.9745 28.0637 21.5886 26.7074L 21.399 26.8609L 17.9758 30.2797C 18.6077 31.5344 19.4087 32.7056 20.431 33.7279C 25.497 38.7941 33.9794 39.0852 39.3365 33.7279L 50.2402 22.826C 55.4619 17.5996 55.4664 9.1462 50.238 3.92206C 45.0095 -1.31563 36.5474 -1.29757 31.3302 3.91755L 31.3302 3.91755Z"/>
</defs>
</svg>
