<?xml version="1.0" encoding="UTF-8"?>
<svg width="22px" height="24px" viewBox="0 0 22 24" version="1.1" xmlns="http://www.w3.org/2000/svg" xmlns:xlink="http://www.w3.org/1999/xlink">
    <!-- Generator: Sketch 47.1 (45422) - http://www.bohemiancoding.com/sketch -->
    <title>share</title>
    <desc>Created with Sketch.</desc>
    <defs></defs>
    <g id="export" stroke="none" stroke-width="1" fill="none" fill-rule="evenodd">
        <g id="icons" transform="translate(-74.000000, -508.000000)" fill-rule="nonzero" fill="#497693">
            <g id="upload" transform="translate(74.000000, 508.000000)">
                <polygon id="Shape" points="16 6 11 0 6 6 10 6 10 17 12 17 12 6"></polygon>
                <path d="M21,24 L1,24 C0.692,24 0.401,23.858 0.212,23.615 C0.023,23.372 -0.045,23.056 0.03,22.757 L3.03,10.757 C3.141,10.312 3.541,10 4,10 L8,10 L8,12 L4.781,12 L2.281,22 L19.719,22 L17.219,12 L14,12 L14,10 L18,10 C18.459,10 18.859,10.312 18.97,10.757 L21.97,22.757 C22.045,23.056 21.977,23.372 21.788,23.615 C21.599,23.858 21.308,24 21,24 Z" id="Shape"></path>
            </g>
        </g>
    </g>
</svg>